<?xml version="1.0" encoding="UTF-8"?>
<svg xmlns="http://www.w3.org/2000/svg" xmlns:xlink="http://www.w3.org/1999/xlink" viewBox="0 0 7033.24 6425.8">
  <defs>
    <style>
      .cls-1 {
        fill: url(#Unbenannter_Verlauf_109);
        opacity: .96;
      }

      .cls-2 {
        fill: url(#Unbenannter_Verlauf_8);
      }

      .cls-3 {
        fill: url(#Unbenannter_Verlauf_6);
      }

      .cls-4 {
        fill: url(#Unbenannter_Verlauf_9);
      }

      .cls-5 {
        fill: #fff;
      }

      .cls-6 {
        fill: url(#Unbenannter_Verlauf_10-2);
      }

      .cls-7 {
        fill: url(#Unbenannter_Verlauf_11-2);
      }

      .cls-8 {
        fill: url(#Unbenannter_Verlauf_9-2);
      }

      .cls-9 {
        fill: url(#Unbenannter_Verlauf_8-2);
      }

      .cls-10 {
        fill: url(#Unbenannter_Verlauf_6-2);
      }

      .cls-11 {
        fill: url(#Unbenannter_Verlauf_15);
      }

      .cls-12 {
        fill: url(#Unbenannter_Verlauf_66);
      }

      .cls-13 {
        fill: url(#Unbenannter_Verlauf_21);
      }

      .cls-14 {
        fill: url(#Unbenannter_Verlauf_17);
      }

      .cls-15 {
        fill: url(#Unbenannter_Verlauf_10);
      }

      .cls-16 {
        fill: url(#Unbenannter_Verlauf_11);
      }
    </style>
    <linearGradient id="Unbenannter_Verlauf_15" data-name="Unbenannter Verlauf 15" x1="3528.21" y1="312.06" x2="3528.21" y2="5718.36" gradientUnits="userSpaceOnUse">
      <stop offset=".14" stop-color="#4a6aa3"/>
      <stop offset=".3" stop-color="#4a6aa3"/>
      <stop offset=".46" stop-color="#4a6aa3"/>
      <stop offset=".47" stop-color="#4669a1" stop-opacity=".94"/>
      <stop offset=".49" stop-color="#3c669e" stop-opacity=".79"/>
      <stop offset=".52" stop-color="#2c6299" stop-opacity=".55"/>
      <stop offset=".55" stop-color="#155d91" stop-opacity=".21"/>
      <stop offset=".56" stop-color="#085a8d" stop-opacity="0"/>
    </linearGradient>
    <linearGradient id="Unbenannter_Verlauf_66" data-name="Unbenannter Verlauf 66" x1="3527.13" y1="446.86" x2="3527.13" y2="5747.2" gradientUnits="userSpaceOnUse">
      <stop offset=".05" stop-color="#fabe7d"/>
      <stop offset=".12" stop-color="#d0325f"/>
      <stop offset=".24" stop-color="#213b80"/>
      <stop offset=".46" stop-color="#4a6aa3"/>
      <stop offset=".47" stop-color="#4669a1" stop-opacity=".94"/>
      <stop offset=".49" stop-color="#3c669e" stop-opacity=".79"/>
      <stop offset=".52" stop-color="#2c6299" stop-opacity=".55"/>
      <stop offset=".55" stop-color="#155d91" stop-opacity=".21"/>
      <stop offset=".56" stop-color="#085a8d" stop-opacity="0"/>
    </linearGradient>
    <radialGradient id="Unbenannter_Verlauf_109" data-name="Unbenannter Verlauf 109" cx="3527.56" cy="2940.52" fx="3527.56" fy="2940.52" r="1831.58" gradientUnits="userSpaceOnUse">
      <stop offset="0" stop-color="#1d1d1b"/>
      <stop offset="1" stop-color="#060707" stop-opacity="0"/>
    </radialGradient>
    <linearGradient id="Unbenannter_Verlauf_21" data-name="Unbenannter Verlauf 21" x1="3656.95" y1="3065.76" x2="3482.41" y2="6591.44" gradientUnits="userSpaceOnUse">
      <stop offset=".49" stop-color="#fff"/>
      <stop offset=".54" stop-color="#fbfbfa" stop-opacity=".98"/>
      <stop offset=".59" stop-color="#efefef" stop-opacity=".93"/>
      <stop offset=".65" stop-color="#dbdbdb" stop-opacity=".84"/>
      <stop offset=".7" stop-color="#c0c0bf" stop-opacity=".72"/>
      <stop offset=".76" stop-color="#9d9d9c" stop-opacity=".57"/>
      <stop offset=".82" stop-color="#727271" stop-opacity=".38"/>
      <stop offset=".88" stop-color="#40403e" stop-opacity=".16"/>
      <stop offset=".92" stop-color="#1d1d1b" stop-opacity="0"/>
    </linearGradient>
    <linearGradient id="Unbenannter_Verlauf_17" data-name="Unbenannter Verlauf 17" x1="3353.19" y1="3100.29" x2="3549.68" y2="6222.95" gradientUnits="userSpaceOnUse">
      <stop offset=".69" stop-color="#fff"/>
      <stop offset="1" stop-color="#1d1d1b" stop-opacity="0"/>
    </linearGradient>
    <linearGradient id="Unbenannter_Verlauf_10" data-name="Unbenannter Verlauf 10" x1="6620.56" y1="2253.55" x2="2445.56" y2="3313.25" gradientUnits="userSpaceOnUse">
      <stop offset=".27" stop-color="#fff"/>
      <stop offset="1" stop-color="#1d1d1b" stop-opacity="0"/>
    </linearGradient>
    <linearGradient id="Unbenannter_Verlauf_11" data-name="Unbenannter Verlauf 11" x1="6096.14" y1="3794.41" x2="3039.92" y2="2837.92" gradientUnits="userSpaceOnUse">
      <stop offset=".16" stop-color="#fff"/>
      <stop offset="1" stop-color="#1d1d1b" stop-opacity="0"/>
    </linearGradient>
    <linearGradient id="Unbenannter_Verlauf_10-2" data-name="Unbenannter Verlauf 10" x1="41.98" y1="2255.57" x2="-4133.02" y2="3315.28" gradientTransform="translate(450.43) rotate(-180) scale(1 -1)" xlink:href="#Unbenannter_Verlauf_10"/>
    <linearGradient id="Unbenannter_Verlauf_11-2" data-name="Unbenannter Verlauf 11" x1="-482.44" y1="3796.43" x2="-3538.66" y2="2839.94" gradientTransform="translate(450.43) rotate(-180) scale(1 -1)" xlink:href="#Unbenannter_Verlauf_11"/>
    <linearGradient id="Unbenannter_Verlauf_6" data-name="Unbenannter Verlauf 6" x1="3948.33" y1="3897.31" x2="5855.64" y2="4593.09" gradientUnits="userSpaceOnUse">
      <stop offset="0" stop-color="#1d1d1b" stop-opacity="0"/>
      <stop offset="0" stop-color="#252523" stop-opacity=".04"/>
      <stop offset=".02" stop-color="#4d4d4c" stop-opacity=".22"/>
      <stop offset=".05" stop-color="#747472" stop-opacity=".39"/>
      <stop offset=".07" stop-color="#959594" stop-opacity=".53"/>
      <stop offset=".1" stop-color="#b2b2b1" stop-opacity=".66"/>
      <stop offset=".13" stop-color="#cacac9" stop-opacity=".77"/>
      <stop offset=".16" stop-color="#ddd" stop-opacity=".85"/>
      <stop offset=".2" stop-color="#ececec" stop-opacity=".92"/>
      <stop offset=".24" stop-color="#f7f7f7" stop-opacity=".97"/>
      <stop offset=".31" stop-color="#fdfdfd" stop-opacity=".99"/>
      <stop offset=".49" stop-color="#fff"/>
      <stop offset=".68" stop-color="#fdfdfd" stop-opacity=".99"/>
      <stop offset=".75" stop-color="#f7f7f7" stop-opacity=".97"/>
      <stop offset=".8" stop-color="#ececec" stop-opacity=".92"/>
      <stop offset=".84" stop-color="#ddd" stop-opacity=".85"/>
      <stop offset=".87" stop-color="#cacac9" stop-opacity=".77"/>
      <stop offset=".9" stop-color="#b2b2b1" stop-opacity=".66"/>
      <stop offset=".93" stop-color="#959594" stop-opacity=".53"/>
      <stop offset=".95" stop-color="#747472" stop-opacity=".39"/>
      <stop offset=".98" stop-color="#4d4d4c" stop-opacity=".22"/>
      <stop offset="1" stop-color="#252523" stop-opacity=".04"/>
      <stop offset="1" stop-color="#1d1d1b" stop-opacity="0"/>
    </linearGradient>
    <linearGradient id="Unbenannter_Verlauf_8" data-name="Unbenannter Verlauf 8" x1="4018.22" y1="3708.35" x2="6393.25" y2="4464.05" gradientUnits="userSpaceOnUse">
      <stop offset="0" stop-color="#1d1d1b" stop-opacity="0"/>
      <stop offset=".04" stop-color="#484847" stop-opacity=".19"/>
      <stop offset=".08" stop-color="#737371" stop-opacity=".38"/>
      <stop offset=".13" stop-color="#989897" stop-opacity=".55"/>
      <stop offset=".18" stop-color="#b8b8b7" stop-opacity=".69"/>
      <stop offset=".23" stop-color="#d2d2d1" stop-opacity=".8"/>
      <stop offset=".28" stop-color="#e5e5e5" stop-opacity=".89"/>
      <stop offset=".34" stop-color="#f4f4f3" stop-opacity=".95"/>
      <stop offset=".4" stop-color="#fcfcfc" stop-opacity=".99"/>
      <stop offset=".49" stop-color="#fff"/>
      <stop offset=".58" stop-color="#fcfcfc" stop-opacity=".99"/>
      <stop offset=".65" stop-color="#f3f3f3" stop-opacity=".95"/>
      <stop offset=".71" stop-color="#e5e5e5" stop-opacity=".89"/>
      <stop offset=".77" stop-color="#d1d1d1" stop-opacity=".8"/>
      <stop offset=".82" stop-color="#b7b7b7" stop-opacity=".69"/>
      <stop offset=".87" stop-color="#979797" stop-opacity=".54"/>
      <stop offset=".92" stop-color="#727270" stop-opacity=".38"/>
      <stop offset=".96" stop-color="#474745" stop-opacity=".19"/>
      <stop offset="1" stop-color="#1d1d1b" stop-opacity="0"/>
    </linearGradient>
    <linearGradient id="Unbenannter_Verlauf_9" data-name="Unbenannter Verlauf 9" x1="4805.48" y1="3889.18" x2="7184.05" y2="4334.48" gradientUnits="userSpaceOnUse">
      <stop offset="0" stop-color="#1d1d1b" stop-opacity="0"/>
      <stop offset=".04" stop-color="#484847" stop-opacity=".19"/>
      <stop offset=".08" stop-color="#737371" stop-opacity=".38"/>
      <stop offset=".13" stop-color="#989897" stop-opacity=".55"/>
      <stop offset=".18" stop-color="#b8b8b7" stop-opacity=".69"/>
      <stop offset=".23" stop-color="#d2d2d1" stop-opacity=".8"/>
      <stop offset=".28" stop-color="#e5e5e5" stop-opacity=".89"/>
      <stop offset=".34" stop-color="#f4f4f3" stop-opacity=".95"/>
      <stop offset=".4" stop-color="#fcfcfc" stop-opacity=".99"/>
      <stop offset=".49" stop-color="#fff"/>
      <stop offset=".64" stop-color="#b5b5b5" stop-opacity=".68"/>
      <stop offset=".82" stop-color="#646462" stop-opacity=".32"/>
      <stop offset=".94" stop-color="#30302f" stop-opacity=".09"/>
      <stop offset="1" stop-color="#1d1d1b" stop-opacity="0"/>
    </linearGradient>
    <linearGradient id="Unbenannter_Verlauf_6-2" data-name="Unbenannter Verlauf 6" x1="-2514.16" y1="3897.31" x2="-606.85" y2="4593.09" gradientTransform="translate(592.64) rotate(-180) scale(1 -1)" xlink:href="#Unbenannter_Verlauf_6"/>
    <linearGradient id="Unbenannter_Verlauf_8-2" data-name="Unbenannter Verlauf 8" x1="-2444.27" y1="3708.35" x2="-69.23" y2="4464.05" gradientTransform="translate(592.64) rotate(-180) scale(1 -1)" xlink:href="#Unbenannter_Verlauf_8"/>
    <linearGradient id="Unbenannter_Verlauf_9-2" data-name="Unbenannter Verlauf 9" x1="-1657" y1="3889.18" x2="721.57" y2="4334.48" gradientTransform="translate(592.64) rotate(-180) scale(1 -1)" xlink:href="#Unbenannter_Verlauf_9"/>
  </defs>
  <g id="Ebene_1">
    <path class="cls-11" d="M5448.1,2821.91c-12.11,176.25-47.68,346.14-104.22,506.3-3.12-11.55-6.53-22.99-9.83-34.47,13.36-136.73,26.44-275.76,36.8-414.7l-26.93,8.06c-8.61,114.01-19.01,228.15-29.85,340.95-32.75-101.81-72.58-200.67-118.11-296.66l-25.4,7.6c54.7,114.92,101.12,233.94,136.89,357.17-3.12,31.91-6.24,63.93-9.36,95.54l21.42,2.12c-281.77,713.76-978.44,1220.07-1791.15,1220.07s-1574.59-555.15-1828.04-1322.26c.72.34,1.27.64,2.03,1l3.3,1.55,3.24-6.89c6.62-.93,14.79-3.49,21.1-10.54,6.59-7.36,9.26-17.55,7.95-30.29-3.61-35.2-8.4-71.77-13.74-109.29,21.65-72.47,46.7-143.9,75.09-213.98l-23.27-12.42c-22.24,54.72-42.47,110.26-60.67,166.47-4.16-27.18-8.45-54.69-12.91-82.89-8.04-50.88-16.11-102.15-23.41-153.24l-28.16-11.6c7.86,56.3,16.79,112.86,25.65,168.94,7.44,47.05,14.59,92.62,20.92,136.7-7.59,25.63-14.75,51.38-21.49,77.26-36.68-129.68-60.09-264.86-68.65-404.01h-52.59c61.84,1034.95,923.44,1857.99,1973.65,1857.99s1911.8-823.47,1973.33-1858.71l-53.59,14.23ZM1691.19,3263.55c-1.47-4.68-2.85-9.41-4.28-14.11l6.08,1.49c4.14-16.86,8.69-33.62,13.2-50.38,2.04,16.4,4.02,32.72,5.65,48.6.5,4.79-.04,8.57-1.41,10.11-2.03,2.27-8.1,2.33-10.69,2.35-3.72.04-6.35.86-8.55,1.94ZM5325.89,3377.08c.31-3.15.62-6.35.93-9.51.36,1.41.72,2.82,1.08,4.23-.67,1.76-1.34,3.52-2.01,5.28Z"/>
    <path class="cls-12" d="M1603.69,2605.99c.96-161.32,21.88-246.45,60.39-396.14,5.06-9.91,10.46-19.61,16.23-29.08-17.49,59.73-31.67,119.72-41.97,179.7-16.81,97.92-13.5,167.32-3.42,279.09l26.58,2.28c-10.28-111.5-13.87-180.33,2.71-276.93,14.48-84.31,36.43-168.69,65.26-252.3,25.52-30.59,53.41-59.03,81.28-85.94,108.56-104.84,227.32-198.76,350.73-285.37,5.12,5.04,11.24,9.05,18.01,11.78-33.99,177.95-40.13,357.86-32.41,530.7-2.35,2.96-6.46,20.85-8.79,23.82l26.38,9.75,9.08-24.86c118.3-148.21,257.45-293.84,419.09-439.06,9.65,8.29,22.04,13.49,35.76,13.49.28,0,.53-.08.8-.08,27.51,156.36,83.15,369.89,151.86,576.99l29.23,3.02c86.59-134.37,185.04-261.57,281.89-386.51l86.37-111.42c5.25,1.66,10.74,2.81,16.54,2.81,3.32,0,6.53-.41,9.69-.98,37.09,85.44,76.94,169.67,119.52,252.56l16.13-25.97c-39.68-77.95-76.94-157.09-111.76-237.3,10.34-8.01,17.86-19.46,20.47-32.79,42.82,1.26,85.27,2.14,126.62,2.7,58.28.79,117.37,1.32,177.07,1.32,81.11,0,163.44-1.26,246.22-3.95,3.57,18.13,16,33.07,32.62,40.09-36.22,80.2-76.7,159.04-121.33,236.07l18.9,19.83c47.97-82.16,91.24-166.39,129.66-252.17,1.24-.13,2.52-.16,3.73-.38,8.69,11.17,17.54,22.3,26.13,33.49,81.24,105.8,175.25,231.8,256.61,364.06,34.76,56.51,67.31,114.56,97.79,173.71l28.41-2.07c66.24-200.3,99.25-411.04,100.47-622.57,11.04-1.09,21.04-5.35,29.2-11.97,142.67,150.47,285.39,311.6,416.27,484.22l27.82-6.71c32.49-184.93,29.84-382.71-7.42-585.81,3.03-1.59,5.88-3.43,8.55-5.54,84.6,61.24,168.09,124.06,250.06,188.91,60.01,47.47,123.18,98.78,178.13,158.16,17.52,18.93,34.1,38.55,49.75,58.83.66,2.99,1.31,5.99,1.96,8.98l35.34,43.65c21.73,33.06,41.15,67.61,58.14,103.53,18.35,97.85,28.07,175.44,30.98,277.84l51.84-21.83c-3.87-95.17-13.45-169.82-30.35-261.11v-.58c-.06-.11-.12-.21-.17-.32-146.61-790.16-764.56-1416.84-1550.21-1576.23l-.42-1.13-2.1.64c-62.03-12.5-125.07-22.16-189.03-28.68l-.6-1.67c-1.24.45-2.5.83-3.74,1.27-65.08-6.5-131.07-9.87-197.84-9.87-1079.21,0-1959.25,797.58-1976.93,1872.65-.18,10.98,3.28,4.58,3.28,15.61l48.97,5.74ZM1792.51,2007.79c-12.99,12.54-25.96,25.49-38.76,38.74,11.7-29.96,24.29-59.78,37.76-89.44,74.16-109.31,168.38-213.16,280.25-308.09,24.74,13.54,50.02,26.02,75.54,38.02-1.37,4.8-2.33,9.77-2.33,15.01,0,5.9,1.17,11.47,2.88,16.79-124.91,87.58-245.24,182.64-355.35,288.97ZM2299.4,1336.74c5.09,2.93,10.91,4.73,17.2,4.73,1.68,0,3.29-.26,4.9-.49-23.29,43.34-44.31,88.67-63.03,135.72-64.97,43.15-128.76,89.88-189.72,140.58-16.99-9.59-33.75-19.6-50.34-29.92,86.21-91.46,180.38-175.07,281-250.61ZM2139.29,1433.31c40.02-44.4,82.51-88.06,127.25-130.99,5.14,2.66,10.41,5.19,15.66,7.76.19,1.93.49,3.81.98,5.64-49.59,37.24-97.64,76.41-143.9,117.59ZM3012.79,966.29c26.66,27.8,53.16,55.7,79.53,83.71-1.1.47-2.19.94-3.29,1.41-51.56-15.63-99.76-35.29-144.1-58.5,7.92-3.13,16.03-6.44,23.88-9.52,14.54-5.7,29.22-11.41,43.97-17.11ZM3486.8,921.22c23.21,5.36,46.54,11.24,69.92,17.39-13.57,5.56-27.05,11.17-40.4,16.87-15.28.44-30.56.92-45.85,1.02-.11-.05-.21-.09-.31-.14-12.16-5.28-24.4-10.46-36.69-15.57,17.57-6.59,35.36-13.12,53.34-19.57ZM4052.91,1462.17c68.41-4.99,136.98-11.46,205.25-20.13,5.33,22.83,24.8,39.98,48.7,42.11,19.76,100.25,32.52,201.75,37.33,303.56-12.69-13.08-25.36-26.1-38.01-39.01-80.91-82.62-167.88-169.14-260.07-255.84,4.45-7.95,7.2-16.98,7.2-26.73,0-1.35-.3-2.62-.4-3.95ZM4391.36,1180.59c-27.68,6.85-55.3,12.39-82.06,17.21-11.39,2.05-22.87,3.66-34.3,5.54-6.64-3.54-13.21-6.99-19.8-10.48-9.8-27.97-20.4-55.67-31.41-83.22,55.85,22.68,111.83,46.23,167.57,70.95ZM4221.18,1080.27c28.27-7.74,55.91-17.1,82.4-28.55,26.95,30.35,52.33,62.01,75.77,94.94-52.67-23.04-105.5-45.1-158.18-66.38ZM4631.78,1267.05c-54.39-28.52-109.54-55.46-165.07-81.13,25.51-8.75,50.57-19.11,74.7-31.4,33.36,34.72,63.87,72.01,90.38,112.53ZM4943.2,1661.38c-.76-.79-1.51-1.57-2.27-2.36-50.42-54.86-109.03-105.5-172.06-152.98-17.8-54.07-35.68-100.74-54.65-142.38,6.52-2.38,12.11-6.6,16.15-12.1,109.47,63.51,214.5,134.45,311.57,215.58,8.69,11.69,17.38,23.37,25.73,35.22-40.25,20.78-81.67,40.53-124.48,59.02ZM5082.56,1624.22c90.93,133.23,160.85,276.04,207.58,424.12-99.64-128.82-210.79-245.27-327.62-366.85,41.2-18.02,81.19-37.14,120.04-57.27ZM4485.16,1402.75c6.33,15.8,21.41,27.02,39.26,27.87,11.82,35.54,21.63,71.58,29.25,107.96-59.53-38.68-119.64-76.44-180.26-113.39,37.53-6.44,74.75-14.05,111.74-22.44ZM4358.55,1400.75c-9.7-15.76-26.96-26.37-46.83-26.37-.85,0-1.64.21-2.47.25-12.1-48.28-25.71-96.21-41.27-143.56.81-.13,1.61-.26,2.42-.39,62.65,33.59,127.19,69.81,194.26,109.12,9.53,5.59,19.08,11.23,28.62,16.89-4.89,5.51-8.49,12.16-10.18,19.59-41.15,9.4-82.7,17.49-124.55,24.47ZM4550,1424.03c8.22-5.11,14.62-12.75,18.13-21.91,61.29,37.93,121.67,77.63,178.41,119.96,16.95,52.22,31.43,104.26,43.86,156.07-5.71,2.52-10.85,6.03-15.35,10.24-62.86-44.14-126.31-87.42-190.49-129.58-8.25-45.47-19.92-90.49-34.55-134.78ZM4580.37,1378.69c31.15-8.87,61.99-18.65,92.48-29.39,2.75,4.44,6.42,8.22,10.81,11.03,16.77,35.25,32.67,74.11,48.31,118.57-48.89-35.01-99.93-68.28-151.6-100.21ZM4737.17,1324.99c19.82-8.08,39.47-16.6,58.91-25.65,62.83,56.08,121.23,115.6,174.54,178.18-74.63-55.55-152.86-106.08-233.45-152.54ZM4722.11,1302.44c-5.61-3.88-12.4-6.17-19.74-6.17-4.27,0-8.31.88-12.09,2.28-4.34-2.37-8.65-4.78-12.99-7.15-7.46-13.02-15.06-25.75-23.03-37.96-26.27-40.27-56.28-77.35-88.96-111.91,5.1-2.98,10.1-6.12,15.08-9.31,68.31,45.86,133.2,95.29,194.07,147.99-17.27,7.85-34.76,15.16-52.35,22.23ZM4658.2,1310.91c2.44,4.36,4.9,8.72,7.29,13.19-34.66,12.25-69.86,23.08-105.42,32.9-8.18-9.39-20.09-15.45-33.52-15.45-2.17,0-4.25.34-6.33.64-.5-.3-1-.6-1.5-.9-19.63-45.98-42.63-90.79-68.57-134.09,70.23,32.35,139.84,66.72,208.05,103.71ZM4479.57,1318.13c-.55-.32-1.1-.65-1.65-.98-56.65-33.2-111.52-64.23-165-93.35.34-.06.69-.1,1.03-.17,33.17-5.98,67.62-13.09,102.01-22.32,23.67,37.75,44.88,76.81,63.62,116.82ZM4281.37,1369.99c-66.84-39.42-134.29-77.8-202.34-115.1,54.41-5.13,108.7-11.49,162.71-19.57,14.71,44.47,28,89.37,39.63,134.67ZM4287.41,1767.06c12.72,12.99,25.51,26.23,38.28,39.42-7.29,8.25-12.04,18.62-13.35,30.14-11.46,1.78-22.82,3.67-34.4,5.33-123.92,17.75-248.98,28.24-373.44,34.61-1.94-4.96-4.64-9.47-7.86-13.6,45.44-112.37,82.56-226.98,111.07-342.68,7.51-1.32,14.51-4.08,20.65-8.11,91.82,86.36,178.44,172.56,259.05,254.89ZM4004.93,1411.67c-2.24-.28-4.44-.68-6.76-.68-11.37,0-21.92,3.45-30.69,9.35-54.75-49.73-110.96-99.24-169.33-147.72,77.29-2.99,155-7.14,232.63-13.44-6.77,50.91-15.66,101.76-25.85,152.5ZM3090.38,1079.41c.53.16,1.03.35,1.56.5,12.53,3.64,25.1,6.77,37.66,9.92,10.94,11.72,21.98,23.35,32.87,35.1-59.12,30.47-117.04,61.16-173.35,91.63-6.57-28.09-12.79-56.27-18.8-84.51,39.87-17.88,79.91-35.38,120.06-52.64ZM2964.82,1105.78c-5.56-27-10.92-54.04-15.96-81.17,32.64,16.13,67.3,30.27,103.53,42.58-29.26,12.7-58.46,25.56-87.57,38.6ZM3181.08,1144.86c34.71,37.64,69,75.53,103.17,113.5-74.48-.02-148.99-1.38-222.93-5.2-21.24-1.1-42.77-2.5-64.4-4.22-.48-1.98-.97-3.95-1.45-5.93,60.2-32.63,122.19-65.51,185.62-98.14ZM3394.42,955.6c1.23-.47,2.47-.94,3.7-1.41,1.21.51,2.41,1.02,3.62,1.52-2.44-.06-4.88-.04-7.32-.11ZM3671.27,971.67c10.51,3.3,20.99,6.5,31.53,9.96,4.4,1.44,8.82,2.99,13.23,4.45-24.42,15.97-48.68,32.09-72.76,48.36-38.62-17.96-77.41-35.59-116.35-52.89,48.2-1.63,96.34-4.92,144.35-9.89ZM3591.59,951.9c1.93-.78,3.86-1.55,5.8-2.33,1.88.53,3.77,1.12,5.65,1.65-3.81.27-7.63.43-11.45.68ZM3721.5,1210.47c-32.27-25.59-65.03-50.82-98.32-75.55,53.83-.07,107.71-1.52,161.55-3.81-21.14,26.42-42.2,52.87-63.23,79.36ZM3808.73,1143.15c60.57,30.15,120.75,61.06,180.45,92.86-74.04,5.3-148.08,8.84-221.74,11.46-8.46-6.89-16.87-13.81-25.4-20.66,22.18-27.92,44.39-55.81,66.69-83.66ZM3727.52,1248.82c-1.01.03-2.03.07-3.04.1.41-.52.83-1.04,1.24-1.56.6.48,1.19.98,1.79,1.46ZM3705.18,1231.02c-5.03,6.34-10.07,12.67-15.09,19.01-24.59.74-49.15,1.46-73.59,2.15-82.35,2.34-165.98,4.64-249.96,5.65,50.21-35.08,100.35-69.97,150.19-104.55,9.12-6.33,18.33-12.69,27.49-19.04,11.36.22,22.74.27,34.11.39,43.12,31.37,85.42,63.55,126.86,96.4ZM3586.9,1108.45c-.88-.64-1.77-1.28-2.65-1.91,20.37-14.05,40.82-28.09,61.4-42.06,29.76,13.92,59.41,28.07,88.98,42.38-49.26,1.47-98.53,1.99-147.73,1.59ZM3617.95,1051.64c-18.83,12.84-37.61,25.69-56.27,38.58-36.93-26.24-74.51-51.74-112.64-76.55,13.98-6.42,28.1-12.81,42.36-19.16,42.38,18.64,84.55,37.71,126.55,57.13ZM3421.05,1026.68c39.88,25.65,79.16,52.12,117.74,79.39-.82.57-1.64,1.13-2.46,1.7-18.46-.39-36.92-.81-55.34-1.47-60.51-2.16-126.7-5.9-194.93-14.4,25.7-12.75,51.48-25.47,77.53-38.01,18.81-9.05,38.04-18.14,57.45-27.21ZM3480.06,1132.53c6.58.24,13.18.33,19.77.53-59.58,41.34-119.58,83.1-179.63,125.19-.23,0-.46,0-.68,0-37.74-42.09-75.9-83.92-114.31-125.61,13-6.64,26.05-13.25,39.16-19.85,82.75,12.5,163.22,17.17,235.69,19.75ZM2975.82,1273.53c13.1,53.04,27.48,105.7,42.59,158.11-9.81,6.31-17.4,15.62-21.63,26.66-55.44-3.58-110.94-8.48-165.94-15.66-48.46-6.32-95.23-14.5-140.97-23.75-.39-1.45-.82-2.88-1.33-4.28,79.99-45.79,166.15-94.49,256.78-144.2,10.18,1.15,20.35,2.2,30.49,3.13ZM3003.48,1275.76c18.96,1.42,37.85,2.65,56.48,3.61,73.88,3.81,148.24,5.24,222.53,5.27-68.43,48.17-136.78,97.17-204.76,146.93-8.56-5.47-18.68-8.75-29.59-8.75-1.65,0-3.21.35-4.83.49-14.09-48.93-27.51-98.08-39.84-147.56ZM3315.76,1293.39c49.54,55.47,98.31,111.34,146.63,167.43-.36.63-.7,1.27-1.04,1.91-112.81,3.09-235.19,5.17-360.2.91-1.23-4.54-3.01-8.8-5.28-12.8,72.99-53.39,146.41-105.85,219.88-157.46ZM3342.59,1284.3c92.32-.82,184.28-3.32,274.71-5.89,17.09-.49,34.3-1,51.46-1.5-43.43,54.98-86.47,109.98-129.4,164.94-8.53-5.42-18.59-8.67-29.45-8.67s-20.9,3.24-29.44,8.66c-45.46-52.77-91.34-105.33-137.89-157.54ZM3703.05,1275.91c18.43-.57,36.95-1.24,55.45-1.88,66.14,54.19,129.99,109.72,191.58,165.65-.56,1.01-1.15,1.99-1.64,3.03-20.72,1.18-41.42,2.32-62.03,3.37-108.73,5.56-218.48,9.89-327.64,13.48,47.81-61.2,95.87-122.45,144.28-183.65ZM3838.39,1128.69c65.55-3.68,130.96-8.92,195.97-15.87,3.56,1.63,7.12,3.28,10.68,4.93-2.62,37.58-6.2,75.17-10.72,112.77-64.78-34.93-130.11-68.84-195.93-101.83ZM3841.6,1102.24c14.47-17.99,28.88-36.02,43.39-53.95,33.41,13.46,67.21,27.79,101.42,42.92-48.13,4.57-96.42,8.27-144.81,11.04ZM4038.82,1085.98c-46.27-21.16-91.7-40.78-136.49-58.95,8.71-10.74,17.46-21.42,26.19-32.13,39.83,15.1,80.08,30.38,120.65,45.97-.51,14.72-1.26,29.44-2.07,44.17-2.76.31-5.53.64-8.27.94ZM3920.11,963.65c-18.47-7-37.06-14.03-55.79-21.02,29.55-5.92,60.15-12.92,90.74-21.87-11.69,14.24-23.29,28.6-34.95,42.88ZM3902.63,985.11c-8.6,10.57-17.24,21.1-25.82,31.69-34.07-13.48-67.8-26.12-101.29-37.99,13.62-8.67,27.4-17.1,41.15-25.6,28.91,10.49,57.59,21.16,85.97,31.9ZM3859.41,1038.17c-17.71,21.9-35.31,43.91-52.94,65.89-5.28.26-10.56.48-15.85.71-39.64-19.51-79.48-38.6-119.47-57.4,25.35-17.05,50.89-33.91,76.61-50.57,36.88,12.78,74.08,26.62,111.65,41.37ZM3673.63,944.9c-12.14-3.78-24.26-7.45-36.36-11.03,19.07-7.33,38.32-14.45,57.73-21.35,22.22,6.72,44.35,13.8,66.39,21.31-29.19,4.36-58.45,7.97-87.76,11.08ZM3597.41,922.33c-21.76-6.05-43.43-11.67-65.05-17.05,20.21-6.88,40.64-13.51,61.27-19.91,20.5,4.72,40.91,9.67,61.17,15.2-19.32,7.03-38.42,14.33-57.39,21.75ZM3397.61,926.29c-40-15.79-80.77-30.36-122.35-43.29,54,6.99,108.58,16.26,163.67,27.75-13.91,5.16-27.69,10.34-41.33,15.54ZM3362.83,939.69c-6.86,2.66-13.7,5.38-20.56,8.06-34.09-19.5-70.11-38.3-107.54-55.39,43.75,14.47,86.54,30.55,128.1,47.33ZM3345.28,979.91c17.03,9.99,33.58,20.04,49.57,30.07-14.37,6.75-28.59,13.51-42.63,20.26-37.75,18.17-75.03,36.64-112.03,55.23-32.01-5.03-64.27-11.27-96.49-19.07-2.19-2.34-4.4-4.67-6.59-7.01,65.38-27.64,131.05-54.34,196.85-80.2,3.77.22,7.55.52,11.32.72ZM3117.91,1039c-26.05-27.71-52-55.47-78.33-82.98,11.91-4.54,23.88-9.06,35.92-13.57,52.94,14.97,106.78,22.97,155.48,28.25,14.28,1.55,28.57,2.81,42.87,4.07-52.11,20.87-104.12,42.26-155.94,64.23ZM2945.83,1143.12c6.19,28.9,12.71,57.71,19.49,86.44-8.49,4.62-16.88,9.22-25.3,13.83-49.4-5.9-98.85-14.99-146.95-29.38,50.59-24.12,101.55-47.73,152.76-70.9ZM2901.2,1264.64c-79.9,44.12-155.92,87.23-227.2,128.04-5.94-5.45-13.08-9.5-20.98-11.94,4.94-39.75,10.91-75.39,17.95-107.27,14.83-7.38,29.55-14.66,44.08-21.78,14.59-7.14,29.29-14.15,43.95-21.22,46.51,16.05,94.26,26.92,142.2,34.17ZM2678.94,1240.24c3.51-13.35,7.22-26.06,11.12-38.2,11.27,5.59,22.89,10.84,34.81,15.77M2675.88,1164.61c-17.24-9.85-33.38-20.61-48.61-32.07,26.52-13.44,53.19-26.54,80.14-39.04-11.35,21.72-21.9,45.14-31.53,71.11ZM2667.03,1189.88c-6.59,20.16-12.69,41.82-18.24,65.34-42.1,21.04-85.22,43.19-128.91,66.58,20.09-61.39,47.37-120.55,80.87-175.99.06-.03.12-.07.18-.1,20.21,16.14,42.34,30.88,66.09,44.16ZM2490.95,1327.93c-5.15-2.08-10.76-3.29-16.66-3.29-16.69,0-31.07,9.27-38.73,22.83-24.47-8.98-48.61-18.27-71.94-28.34,10.02-17.27,20.48-34.12,31.22-50.69,52.47-35.19,106.56-68.15,162.11-98.84-27.28,50.48-49.18,103.67-66.01,158.32ZM2583.14,1445.21c-33.33,19.36-66.7,38.75-100.14,58.67,2.7-32.48,7.73-64.7,14.47-96.62,3.45-2.11,6.59-4.63,9.34-7.57,24.9,7.69,50.45,14.72,76.35,21.39-.88,3.91-1.43,7.93-1.43,12.11s.54,8.15,1.41,12.03ZM2439.2,1396.56c7.19,9.23,17.84,15.47,30.07,16.85-7.01,35.37-11.89,71.12-14.01,107.09-73.97,44.45-147.74,90.67-220.47,139-2.11-1.73-4.31-3.31-6.66-4.71,5.56-21.69,11.42-43.34,18-64.88,9.95-32.58,21.07-64.42,33.21-95.52,52.87-34.88,106.45-67.3,159.86-97.85ZM2296.83,1451.73c16.34-37.85,34.43-74.32,53.86-109.55,24.97,10.84,50.6,21.03,76.79,30.68-43.57,24.9-87.28,51.13-130.65,78.87ZM2376.15,1249.44c-13.67,9.21-27.03,18.84-40.47,28.35-5.48-3.62-12.03-5.76-19.09-5.76-10.8,0-20.32,5.03-26.69,12.76-1.15-.56-2.35-1.08-3.49-1.66,57.23-53.78,118.11-106.36,182.59-157.59-33.31,38.51-64.15,80.11-92.85,123.9ZM2047.5,1635.3c-70.86,60.78-134.69,125.12-190.84,192.2,38.62-70.18,82.16-139.04,130.41-206.04,4.38-4.85,8.68-9.77,13.1-14.57,15.6,9.78,31.37,19.26,47.33,28.41ZM2160.24,1664.12c-22.49-10.55-44.79-21.49-66.67-33.25,47.96-39.45,97.65-76.47,148.3-111.22-7.38,20.57-14.37,41.43-20.84,62.6-6.59,21.57-12.37,43.25-17.89,64.96-1.03-.06-2-.31-3.04-.31-15.72,0-29.82,6.66-39.86,17.21ZM2171.97,2252.76c-5.7-162.31,1.64-330.27,33.47-496.14,17.97-1.75,33.3-11.98,42.01-26.8,18.03,6.88,36.17,13.53,54.52,19.64,88.94,29.57,181.08,50.11,272.1,68.45.55,4.92,1.58,9.68,3.33,14.12-155.14,139.18-289.86,278.79-405.44,420.73ZM2614.03,1758.87c-16.86,4.63-30.45,16.91-36.72,33.03-89.57-18.09-180.13-38.44-267.05-67.34-18.63-6.2-37.01-13-55.29-20.03.04-.85.25-1.64.25-2.5,0-7.67-1.58-14.98-4.42-21.62,113.28-75.22,229.22-145.06,344.16-211.79,5.94,7.01,13.46,12.54,22.19,15.9-4.27,62.7-6.54,133.86-6.54,215.56,0,16.87,1.25,36.78,3.41,58.79ZM2627.22,1379.03c-12.65,2.24-23.67,8.82-31.76,18.11-26.21-6.65-52-13.72-77.17-21.41.31-2.12.65-4.24.65-6.44,0-5.48-1.12-10.67-2.93-15.52,42.49-23,84.58-44.91,125.71-65.64-5.54,27.68-10.36,57.93-14.49,90.9ZM2636.86,1700.08c0-80.81,2.16-150.81,6.2-212.39,23.3-2.64,42.16-19.59,47.37-42,44.56,8.88,89.96,16.85,137.02,22.99,55.13,7.2,110.73,12.16,166.22,15.81.34,2.83.85,5.57,1.6,8.24-115.98,86.83-229.84,176.9-339.69,271.3-4.72-2.67-9.76-4.82-15.21-6.01-2.24-21.89-3.51-41.48-3.51-57.93ZM3071.62,2044.27c-92.98,119.94-187.47,241.93-271.73,370.53-65.28-200.33-118.4-405.53-144.83-554.93,9.14-5.05,16.62-12.54,21.65-21.69,106.01,20.65,214.92,41.25,323.91,53.33,46.71,5.17,93.51,8.48,140.13,11.08,1.39,12.68,6.82,24.13,15.32,32.73l-84.45,108.95ZM3144.06,1876.52c-46.79-2.59-93.76-5.91-140.55-11.1-107.31-11.89-214.99-32.21-319.9-52.64,0-.33.1-.65.1-.98,0-10.96-3.29-21.11-8.8-29.69,107.78-92.54,219.51-180.96,333.35-266.28,10.04,10.57,24.15,17.25,39.89,17.25.31,0,.59-.09.89-.09,33.96,107.78,72.09,214.11,114.42,318.74-8.68,6.16-15.45,14.74-19.4,24.79ZM3222.87,1849.15c-8.15-4.75-17.49-7.66-27.6-7.66-2.49,0-4.86.41-7.26.73-42-103.76-79.92-209.18-113.64-316.06,13.83-7.54,24.15-20.64,27.59-36.47,49.75,1.7,99.22,2.71,147.7,2.71,70.76,0,139.52-1.44,205.23-3.22.25,15.36,6.76,29.13,17.11,38.98-57.4,73.74-114.45,147.27-170.96,220.17l-78.16,100.83ZM3800.63,1881.12c-144.02,4.72-286.48,4.45-424.33,2.59-41.96-.57-84.97-1.38-128.41-2.67-1.43-4.83-3.39-9.41-6.01-13.59l79.89-103.06c57.29-73.91,115.13-148.47,173.34-223.24,4.74,1.33,9.64,2.27,14.81,2.27,6.97,0,13.57-1.43,19.7-3.79,93.64,110.56,184.86,222.13,273.37,334.58-.99,2.2-1.66,4.55-2.35,6.89ZM3853.28,1841.49c-12.73,0-24.3,4.49-33.63,11.73-87.01-110.45-176.51-220.09-268.46-328.71,8.52-9.7,13.86-22.28,13.86-36.21,0-.94-.23-1.81-.28-2.74,107.62-3.54,215.79-7.8,322.97-13.28,18.46-.94,37.06-2.06,55.62-3.12,1.29,23.15,16.75,42.3,37.94,49.16-27.48,110.6-63.01,220.17-106.14,327.72-6.71-2.91-14.1-4.56-21.88-4.56ZM4254.83,2487.09c-27.34-51.82-56.31-102.74-86.93-152.51-81.97-133.27-176.49-259.95-258.15-366.28-7.36-9.59-14.89-19.13-22.38-28.67,11.2-8.9,18.75-21.95,20.41-36.92,124.53-6.41,249.73-16.99,373.88-34.77,11.4-1.63,22.6-3.47,33.89-5.22,5.48,14.12,16.52,25.42,30.52,31.13-.83,201.28-30.82,401.87-91.26,593.25ZM4370.15,1788.03c-4.79-103.18-17-206.13-36.95-307.75,13.58-5.75,24.27-16.83,29.7-30.58,135.36,82.6,268.07,169.53,397.88,260.72-1.99,5.7-3.29,11.72-3.29,18.09,0,.9.22,1.74.26,2.63-107.46,35.49-221.54,64.58-341.69,87.33-8.54-17.22-25.7-29.23-45.93-30.45ZM4823.88,2334.36c-128.34-167.32-267.4-323.69-406.28-470.01,2.61-6.16,4.02-12.93,4.21-20,120.77-22.9,235.26-52.42,343.41-88.11,9.52,16.24,26.92,27.26,47.07,27.38,34.8,190.59,39.13,376.38,11.58,550.74ZM4816.12,1673.75c-9.94-41.22-20.93-82.57-33.61-124.04,48.87,38.57,94.41,79.24,134.74,122.49-19.77,8.23-40.21,15.83-60.5,23.58-9.38-12.62-23.97-20.97-40.63-22.03ZM5294.11,2100.84c-56.25-60.76-120.31-112.82-181.12-160.93-81.99-64.86-165.53-127.63-250.14-188.89,3.09-6.88,4.9-14.47,4.9-22.5,0-2.79-.42-5.47-.82-8.15,23.56-9,46.91-18.21,69.79-27.86,128.75,134.04,259.38,271.42,372.52,421.59.48,1.79.89,3.58,1.36,5.37-5.46-6.24-10.84-12.53-16.49-18.63ZM5169.74,1685.04c93.6,152.44,166.52,318.87,214.94,495.33-5.95-9.04-11.96-18-18.03-26.89-10.45-15.32-21.08-30.42-31.85-45.34-43.27-162.55-113.63-319.77-208.73-466.17,14.81,14.05,29.33,28.45,43.67,43.07ZM4836.93,1279.15c98.89,91.84,188.16,193.88,266.06,304.51-.32.18-.64.35-.96.53-13.45-11.96-27.09-23.67-40.86-35.22-13.91-18.63-28.11-37.12-42.86-55.33-59.15-73.01-125.11-142.13-196.78-206.81,5.14-2.53,10.28-5.08,15.39-7.69ZM4618.53,1104.54c1.69.94,3.34,1.91,5.02,2.85,67.48,46.87,131.87,97.88,192.71,152.77-5.3,2.65-10.57,5.37-15.91,7.94-61.66-54.03-127.31-104.86-196.63-151.9,5.03-3.74,9.94-7.66,14.81-11.66ZM4593.5,1090.97c-4.34,3.35-8.78,6.56-13.26,9.71-37.77-24.89-76.46-48.78-116.17-71.43,45.06,19.17,88.19,39.77,129.43,61.72ZM4521.92,1134.88c-29.12,14.19-59.68,25.56-90.68,34.83-2.15-.97-4.31-1.94-6.46-2.91-29.07-44.22-61.15-86.69-96.22-126.73,16.06-8.04,31.55-16.99,46.4-26.91,51.96,37.29,101.75,77.39,146.96,121.72ZM4263.48,956.92c9.46,4.28,18.96,8.53,28.36,12.9,19.61,9.1,38.99,18.54,58.22,28.18-12.82,7.97-26.16,15.2-39.91,21.8-22.25-24.23-45.5-47.56-69.77-69.83,7.77,2.26,15.41,4.62,23.09,6.95ZM4182.47,934.2c36.17,30.11,70.48,62.44,102.54,96.8-26.53,10.93-54.25,19.84-82.62,27.11-19.79-45.83-41.24-90.99-64.43-135.34,14.87,3.65,29.71,7.51,44.51,11.42ZM4220.62,1174.71c-46.56-24.11-92.04-46.62-136.72-67.76,31.09-4.13,62.52-9.2,93.63-15.93,4.2,1.67,8.4,3.38,12.6,5.06,10.77,25.99,20.82,52.24,30.49,78.63ZM4103.93,914.71c25.9,48.14,49.71,97.28,71.5,147.24-33.29-13.22-66.47-26.16-99.48-38.89,1.02-38.41,1-76.75,0-114.99,9.37,2.08,18.65,4.47,27.99,6.64ZM4074.93,1050.8c19.02,7.35,38.07,14.74,57.18,22.25-19.53,3.4-39.07,6.28-58.47,8.77.55-10.34.89-20.68,1.29-31.02ZM4070.52,1129.64c52.51,24.81,106.25,51.7,161.44,80.66-56.79,8.36-113.93,14.88-171.21,20.02,3.99-33.56,7.28-67.13,9.78-100.68ZM4269.99,1393.86c-5.3,6.2-9.24,13.52-11.38,21.65-71.16,9.13-142.72,15.83-214.09,20.95-3.86-6.02-8.82-11.23-14.65-15.34,10.05-49.63,18.74-99.38,25.57-149.19,72.21,39.42,143.7,80.14,214.55,121.94ZM4023.07,897.06c8.81,1.8,17.62,3.62,26.39,5.49,1.07,36.73,1.19,73.56.38,110.46-34.89-13.38-69.52-26.54-103.85-39.56,18.58-22.73,37.18-45.41,55.83-68.03,7.13-2.64,14.21-5.45,21.25-8.36ZM3898.9,873.79c-28.71,16.29-57.06,33.19-85.19,50.42-25.33-9.09-50.8-17.91-76.48-26.22,35.83-11.92,72.11-22.97,108.84-32.82,17.69,2.81,35.33,5.64,52.83,8.61ZM3646.61,869.77c32.14-5.42,64.05-12.18,95.68-20.23,15.81,2.24,31.36,4.61,47,6.93-31.12,9.07-61.91,18.84-92.31,29.25-11.63-3.47-23.21-7.18-34.9-10.37-6.14-1.68-12.32-3.14-18.47-4.74,1-.28,1.99-.56,2.99-.84ZM3291.52,949.78c-19.24-1.54-38.49-3.09-57.71-5.17-36.95-4.01-76.78-9.12-116.68-17.54,23.96-8.72,48.17-17.27,72.56-25.62,35.19,14.54,69.23,30.93,101.82,48.33ZM3035.49,866.87c19.17.07,38.44.48,57.8,1.16,19.8,5.49,39.34,11.77,58.59,18.75-26.98,9.49-53.7,19.19-80.12,29.04-29.3-8.41-58.01-19.22-85.05-33.32,16.22-5.3,32.48-10.52,48.79-15.63ZM2945.25,896.25c16.01,16.45,31.85,33.02,47.77,49.54-11.32,4.39-22.6,8.78-33.79,13.18-6.81,2.67-13.73,5.43-20.6,8.14-3.71-21.64-7.25-43.32-10.63-65.03,5.74-1.95,11.5-3.88,17.25-5.82ZM2925.1,875.34c-.41.14-.83.28-1.24.42-.1-.68-.22-1.36-.32-2.04.53.54,1.04,1.09,1.56,1.62ZM2940.24,1116.83c-61.4,27.73-122.38,56.2-182.87,85.29-3.51-1.28-7.07-2.33-10.56-3.68-16.73-6.46-32.6-13.83-48.03-21.61,14.12-38.42,30.41-71.13,48.56-101.29,55.59-24.84,111.11-48.07,165.84-69.96,2.03,1.14,4.14,2.22,6.19,3.35,6.53,36.08,13.43,72.06,20.87,107.9ZM2855.1,927.37c15.82-5.58,31.67-11.11,47.55-16.6,3.41,21.69,7.02,43.34,10.75,64.96-22.25-13.08-43.13-27.29-63-42.24,1.55-2.01,3.13-4.09,4.69-6.12ZM2834.34,954.21c16.02,12.06,32.83,23.52,50.34,34.42-36.67,14.79-73.73,30.11-110.87,46.2,18.19-26.13,37.82-51.42,58.75-78.32.59-.76,1.19-1.54,1.78-2.3ZM2745.3,966.72c21.27-7.71,42.61-15.4,64.01-23.07-28.8,37.02-55.58,71.72-79.57,110.6-33.73,15.16-67.34,31.05-100.6,47.63,33.87-49.07,72.93-94.39,116.16-135.16ZM2625.74,1010.78c20.63-7.85,41.2-15.53,61.72-23.01-34,36.59-64.81,76.16-92.2,118.06-12.86-11.86-24.72-24.32-35.5-37.38,21.3-20.3,43.31-39.54,65.98-57.68ZM2579.59,1127.45c-49.85,26.38-98.5,54.66-146,84.6,33.04-44.93,68.94-86.6,107.16-124.93,11.8,14.12,24.79,27.58,38.84,40.34ZM2494.4,1066.45c6.86-3.31,13.79-6.5,20.72-9.68-90.88,68.65-175.29,139.8-252.93,213.23-6.82-3.66-13.58-7.37-20.28-11.14,78.61-70.77,163.01-135.2,252.48-192.41ZM2221.49,1277.57c6.84,3.9,13.85,7.64,20.81,11.43-84.67,81.73-161.11,166.16-228.74,253.02-7.38,9.47-14.47,19.07-21.66,28.63-6.52-4.27-12.92-8.76-19.37-13.14,73.82-101.22,157.25-194.98,248.96-279.94ZM1957.12,1578.77c6.32,4.3,12.56,8.73,18.95,12.92-3.24,4.42-6.32,8.91-9.51,13.34-38.58,42.75-75.56,86.98-110.8,132.7,31.25-54.71,65.07-107.77,101.36-158.97ZM1773.34,1899.19c21.86-33.67,44.77-66.54,68.36-98.87-26.63,47.44-51.13,95.47-73.23,143.98-14.01,20.73-27.24,41.67-39.83,62.77,13.87-36.48,28.71-72.49,44.7-107.88Z"/>
    <circle class="cls-1" cx="3527.56" cy="2940.52" r="1831.58"/>
    <ellipse class="cls-5" cx="3518.26" cy="2761.74" rx="171.25" ry="405.5"/>
    <path class="cls-13" d="M3531.43,5587.57l26.34-2152.21c.53-43.39,5.05-86.63,13.51-129.19l11.02-55.45c11.96-60.21,97.02-63.02,112.93-3.73h0c22.95,85.54,29.65,174.47,19.72,262.48-23.63,209.5-67.09,608.5-72.38,754.59-3.36,92.84-7.45,185.65-13.93,278.32l-73.09,1046.18c-1.09,15.61-24.32,14.66-24.12-.99Z"/>
    <path class="cls-14" d="M3457.45,3456.05l25.33,2132.67c.17,14.05-19.29,15.08-20.42,1.07l-165.7-2061.65c-5.66-78.67.24-157.8,17.48-234.52l7.46-33.19c14.45-64.32,100.46-63,113.18,1.73l7.55,38.41c10.05,51.13,15.11,103.23,15.11,155.48Z"/>
    <g>
      <path class="cls-15" d="M5053.14,2639.16l247.64-234.03c4.11-3.88.67-10.73-4.9-9.76l-545.4,95.37c-.15.03-.12.02-.27.05-5.25,1.35-420.32,108.21-576.51,153.91-144.66,42.33-347.64,131.9-377.73,138.07,37.93,20.1,541.37,14.71,957-27.92,27.44-2.81,337.1-49.32,343.7-51.39.18-.06,62.45-27.27,62.64-27.3,112.03-20.9,765.49-283.91,1037.89-393.49,6.53-2.63,11.08,6.58,5.02,10.16-211.02,124.67-821.8,481.88-1001.75,547.22-5.83,2.12-4.39,10.67,1.81,10.98l809.7-261.75c2.48.13,4.76-1.36,5.63-3.69l438.23-491.3c1.84-4.9-3.34-9.48-7.98-7.06l-466.86,243.78c-.25.13-.51.24-.78.34l-921.31,317.35c-5.8,2-10.23-5.32-5.77-9.54Z"/>
      <path class="cls-16" d="M4346.8,3433.12s-334.51-225.74-420.24-325.38c-1.07-1.24.5-3.03,1.86-2.12,40.01,26.74,221.25,144.26,389.6,195.7,190.6,58.24,645.49,139.97,645.49,139.97l-790.69-272.43-336.59-180.66s889.44,251.15,1064.16,226.54c174.71-24.6,915.92,332.38,915.92,332.38l-725.32,151.27s-546.75-125.65-744.19-265.28Z"/>
      <path class="cls-5" d="M6000.06,2398.6s-540.13,241.78-841.73,320.55c-301.6,78.78-933.65,70.54-933.65,70.54-5.02-.09-15.33.83-10.47-.42,146.04-37.62,694.19-188.09,873.65-303.01,8.16-5.22,2.49-17.8-6.77-14.94-161.17,49.67-595.75,176.92-804.48,172.74-192.48-3.85-422.04,28.47-527.39,45.34-12.97,2.08-19.2-15.23-7.94-21.98,111.57-66.96,402.48-221.53,802.93-285.6,518.27-82.92,896.62-300.6,896.62-300.6,0,0,367.98-207.31,653.03-207.31s347.24,20.73,347.24,20.73c0,0,171.03,15.55,108.84,248.77-62.19,233.22-668.57,539.01-668.57,539.01,0,0-627.11,305.78-1181.67,305.78-418.96,0-806-93.63-970.23-139.41-9.81-2.74-7.21-17.3,2.93-16.39,0,0,854.8,99.56,1354.4-15.32,492.54-113.26,913.27-418.49,913.27-418.49Z"/>
      <path class="cls-5" d="M3747.42,2957.36c-9.74-4.72-4.11-19.55,6.25-16.4,196.3,59.51,659.54,185.97,986.21,163.71,424.74-28.95,1079.4,0,1278.36,29.85,198.97,29.85,378.04,69.64,492.44,189.02,114.41,119.38-29.85,223.61-29.85,223.61,0,0-293.48,149.46-547.16,179.3-253.68,29.85-805.82,134.3-1372.87-79.59-452.93-170.84-717.53-409.24-874.54-592.06-13.28-15.46,7.27-36.79,23.28-24.17,237.96,187.52,776.24,566.7,1204.43,536.65,275.72-19.35,420.9-37.52,497.31-51.09,14.86-2.64,13.24-24.44-1.84-25.02-209.18-7.97-760.29-54.97-1236.62-322.29,0,0,278.55,80.91,532.24,45.66,0,0-559.27-64.31-957.64-257.16Z"/>
    </g>
    <g>
      <path class="cls-6" d="M1975.87,2641.18l-247.64-234.03c-4.11-3.88-.67-10.73,4.9-9.76l545.4,95.37.27.05c5.25,1.35,420.32,108.21,576.51,153.91,144.66,42.33,347.64,131.9,377.73,138.07-37.93,20.1-541.37,14.71-957-27.92-27.44-2.81-337.1-49.32-343.7-51.39-.18-.06-62.45-27.27-62.64-27.3-112.03-20.9-765.49-283.91-1037.89-393.49-6.53-2.63-11.08,6.58-5.02,10.16,211.02,124.67,821.8,481.88,1001.75,547.22,5.83,2.12,4.39,10.67-1.81,10.98l-809.7-261.75c-2.48.13-4.76-1.36-5.63-3.69l-438.23-491.3c-1.84-4.9,3.34-9.48,7.98-7.06l466.86,243.78c.25.13.51.24.78.34l921.31,317.35c5.8,2,10.23-5.32,5.77-9.54Z"/>
      <path class="cls-7" d="M2682.21,3435.15s334.51-225.74,420.24-325.38c1.07-1.24-.5-3.03-1.86-2.12-40.01,26.74-221.25,144.26-389.6,195.7-190.6,58.24-645.49,139.97-645.49,139.97l790.69-272.43,336.59-180.66s-889.44,251.15-1064.16,226.54c-174.71-24.6-915.92,332.38-915.92,332.38l725.32,151.27s546.75-125.65,744.19-265.28Z"/>
      <path class="cls-5" d="M1028.95,2400.62s540.13,241.78,841.73,320.55c301.6,78.78,933.65,70.54,933.65,70.54,5.02-.09,15.33.83,10.47-.42-146.04-37.62-694.19-188.09-873.65-303.01-8.16-5.22-2.49-17.8,6.77-14.94,161.17,49.67,595.75,176.92,804.48,172.74,192.48-3.85,422.04,28.47,527.39,45.34,12.97,2.08,19.2-15.23,7.94-21.98-111.57-66.96-402.48-221.53-802.93-285.6-518.27-82.92-896.62-300.6-896.62-300.6,0,0-367.98-207.31-653.03-207.31-285.05,0-347.24,20.73-347.24,20.73,0,0-171.03,15.55-108.84,248.77,62.19,233.22,668.57,539.01,668.57,539.01,0,0,627.11,305.78,1181.67,305.78,418.96,0,806-93.63,970.23-139.41,9.81-2.74,7.21-17.3-2.93-16.39,0,0-854.8,99.56-1354.4-15.32-492.54-113.26-913.27-418.49-913.27-418.49Z"/>
      <path class="cls-5" d="M3281.59,2959.38c9.74-4.72,4.11-19.55-6.25-16.4-196.3,59.51-659.54,185.97-986.21,163.71-424.74-28.95-1079.4,0-1278.36,29.85-198.97,29.85-378.04,69.64-492.44,189.02-114.41,119.38,29.85,223.61,29.85,223.61,0,0,293.48,149.46,547.16,179.3,253.68,29.85,805.82,134.3,1372.87-79.59,452.93-170.84,717.53-409.24,874.54-592.06,13.28-15.46-7.27-36.79-23.28-24.17-237.96,187.52-776.24,566.7-1204.43,536.65-275.72-19.35-420.9-37.52-497.31-51.09-14.86-2.64-13.24-24.44,1.84-25.02,209.18-7.97,760.29-54.97,1236.62-322.29,0,0-278.55,80.91-532.24,45.66,0,0,559.27-64.31,957.64-257.16Z"/>
    </g>
    <g>
      <path class="cls-3" d="M3819.91,3937.81s923.31-3.45,1957.68,643.17c0,0-978.84-474.09-1957.68-643.17Z"/>
      <path class="cls-2" d="M4124.29,3754.17s994.11,199.59,2167.43,698.18c0,0-1135.5-318.4-2167.43-698.18Z"/>
      <path class="cls-4" d="M4899.54,3860.55s622.33,213.37,1041.96,288.05c419.63,74.68,1091.74,110.79,1091.74,110.79,0,0-544.09-48.55-1081.08-156.13-536.98-107.58-1052.63-242.71-1052.63-242.71Z"/>
    </g>
    <g>
      <path class="cls-10" d="M3235.22,3937.81s-923.31-3.45-1957.68,643.17c0,0,978.84-474.09,1957.68-643.17Z"/>
      <path class="cls-9" d="M2930.83,3754.17s-994.11,199.59-2167.43,698.18c0,0,1135.5-318.4,2167.43-698.18Z"/>
      <path class="cls-8" d="M2155.59,3860.55s-622.33,213.37-1041.96,288.05c-419.63,74.68-1091.74,110.79-1091.74,110.79,0,0,544.09-48.55,1081.08-156.13,536.98-107.58,1052.63-242.71,1052.63-242.71Z"/>
    </g>
    <ellipse class="cls-5" cx="3518.26" cy="2188.92" rx="204.76" ry="132.64"/>
  </g>
</svg>
